<svg xmlns="http://www.w3.org/2000/svg" viewBox="0 0 512 512">
  <defs>
    <linearGradient id="bg" x1="0%" y1="0%" x2="100%" y2="100%">
      <stop offset="0%" stop-color="#120809" />
      <stop offset="55%" stop-color="#09090b" />
      <stop offset="100%" stop-color="#030303" />
    </linearGradient>
    <radialGradient id="glow" cx="50%" cy="38%" r="62%">
      <stop offset="0%" stop-color="#ef4444" stop-opacity=".24" />
      <stop offset="100%" stop-color="#ef4444" stop-opacity="0" />
    </radialGradient>
    <linearGradient id="red" x1="0%" y1="0%" x2="100%" y2="100%">
      <stop offset="0%" stop-color="#ff6b6b" />
      <stop offset="45%" stop-color="#dc2626" />
      <stop offset="100%" stop-color="#7f1d1d" />
    </linearGradient>
    <filter id="shadow" x="-20%" y="-20%" width="140%" height="140%">
      <feDropShadow dx="0" dy="10" stdDeviation="14" flood-color="#000000" flood-opacity=".55" />
    </filter>
    <filter id="redShadow" x="-20%" y="-20%" width="140%" height="140%">
      <feDropShadow dx="0" dy="0" stdDeviation="10" flood-color="#dc2626" flood-opacity=".4" />
    </filter>
  </defs>

  <rect width="512" height="512" rx="120" fill="url(#bg)" />
  <rect width="512" height="512" rx="120" fill="url(#glow)" />

  <g opacity=".14">
    <path d="M88 108c54-24 123-36 170-36 81 0 144 20 201 55" fill="none" stroke="#7f1d1d" stroke-width="3" stroke-linecap="round"/>
    <path d="M72 412c88 26 185 34 294 18 37-5 70-15 100-29" fill="none" stroke="#7f1d1d" stroke-width="3" stroke-linecap="round"/>
  </g>

  <g filter="url(#shadow)">
    <path
      d="M185 126c-44 0-82 28-82 72 0 34 20 53 64 70l37 14c26 10 36 21 36 39 0 21-18 37-49 37-32 0-55-13-76-38l-29 31c28 33 66 50 108 50 58 0 100-31 100-83 0-38-18-58-67-77l-36-14c-24-9-35-20-35-36 0-20 16-33 42-33 24 0 42 8 61 25l28-32c-24-22-58-35-102-35Z"
      fill="#f5f2eb"
    />
    <path
      d="M301 154h54v204h-42v-155l-46 29-19-34 53-44Z"
      fill="#f5f2eb"
    />
    <path
      d="M390 282h47v-74l-47 74Zm-16 31 88-133h29v133h24v39h-24v42h-43v-42h-74v-39Z"
      fill="url(#red)"
      filter="url(#redShadow)"
    />
  </g>

  <g opacity=".9">
    <text
      x="256"
      y="442"
      text-anchor="middle"
      font-family="Geist, Arial, sans-serif"
      font-size="46"
      font-weight="700"
      letter-spacing="16"
      fill="#d4d4d8"
    >
      SUBJECT 14
    </text>
  </g>
</svg>
